<?xml version="1.0"?>
<svg viewBox="0 0 481 449" xmlns="http://www.w3.org/2000/svg" xmlns:svg="http://www.w3.org/2000/svg" version="1.1">
 <g class="layer">
  <title>Layer 1</title>
  <g id="svg_1">
   <path d="m231.88,8.75l0,8.12c0,4.83 3.92,8.75 8.75,8.75s8.75,-3.92 8.75,-8.75l0,-8.12c0,-4.83 -3.92,-8.75 -8.75,-8.75s-8.75,3.91 -8.75,8.75z" fill="#000000" id="svg_2" />
   <path d="m322.83,23.57l-3.16,7.49c-1.89,4.45 0.2,9.58 4.65,11.46c1.11,0.47 2.27,0.7 3.4,0.7c3.41,0 6.66,-2.01 8.06,-5.35l3.17,-7.49c1.88,-4.45 -0.21,-9.59 -4.66,-11.47c-4.46,-1.88 -9.59,0.2 -11.46,4.66z" fill="#000000" id="svg_3" />
   <path d="m405.03,88.59l5.75,-5.75c3.42,-3.42 3.42,-8.96 0,-12.37c-3.41,-3.42 -8.96,-3.42 -12.37,0l-5.75,5.75c-3.42,3.42 -3.42,8.96 0,12.37c1.71,1.71 3.94,2.56 6.19,2.56c2.23,0.01 4.47,-0.85 6.18,-2.56z" fill="#000000" id="svg_4" />
   <path d="m438.74,156.93c1.41,3.34 4.65,5.35 8.06,5.35c1.14,0 2.29,-0.22 3.4,-0.69l7.49,-3.17c4.45,-1.88 6.53,-7.01 4.66,-11.47c-1.88,-4.45 -7.02,-6.53 -11.47,-4.65l-7.49,3.16c-4.45,1.88 -6.53,7.02 -4.65,11.47z" fill="#000000" id="svg_5" />
   <path d="m472.51,231.87l-8.13,0c-4.83,0 -8.75,3.92 -8.75,8.75s3.92,8.75 8.75,8.75l8.13,0c4.83,0 8.75,-3.92 8.75,-8.75s-3.92,-8.75 -8.75,-8.75z" fill="#000000" id="svg_6" />
   <path d="m146.97,18.91c-4.45,1.88 -6.54,7.01 -4.66,11.47l3.17,7.49c1.41,3.34 4.65,5.34 8.06,5.34c1.13,0 2.29,-0.22 3.4,-0.69c4.45,-1.88 6.53,-7.01 4.65,-11.47l-3.16,-7.48c-1.87,-4.46 -7.01,-6.55 -11.46,-4.66z" fill="#000000" id="svg_7" />
   <path d="m82.42,91.16c2.24,0 4.48,-0.85 6.19,-2.56c3.42,-3.42 3.42,-8.96 0,-12.37l-5.75,-5.75c-3.42,-3.42 -8.96,-3.42 -12.37,0c-3.42,3.41 -3.42,8.95 0,12.37l5.75,5.75c1.7,1.7 3.94,2.56 6.18,2.56z" fill="#000000" id="svg_8" />
   <path d="m18.92,146.96c-1.88,4.45 0.2,9.59 4.66,11.47l7.48,3.16c1.11,0.47 2.27,0.69 3.4,0.69c3.42,0 6.66,-2 8.07,-5.34c1.88,-4.46 -0.21,-9.59 -4.66,-11.47l-7.49,-3.17c-4.45,-1.88 -9.58,0.21 -11.46,4.66z" fill="#000000" id="svg_9" />
   <path d="m8.75,231.87c-4.83,0 -8.75,3.92 -8.75,8.75s3.92,8.75 8.75,8.75l8.13,0c4.82,0 8.75,-3.92 8.75,-8.75s-3.93,-8.75 -8.75,-8.75l-8.13,0z" fill="#000000" id="svg_10" />
   <path d="m334.33,249.37c4.83,0 8.75,-3.92 8.75,-8.75l0,-20.22c0,-4.83 -3.92,-8.75 -8.75,-8.75c-4.83,0 -8.75,3.92 -8.75,8.75l0,20.22c0,4.83 3.92,8.75 8.75,8.75z" fill="#000000" id="svg_11" />
   <path d="m362.38,206.53c2.61,0 5.2,-1.17 6.93,-3.39c2.95,-3.82 2.26,-9.31 -1.56,-12.28l-121.76,-94.32c-0.16,-0.12 -0.34,-0.2 -0.5,-0.31c-0.26,-0.18 -0.52,-0.36 -0.8,-0.5c-0.26,-0.14 -0.52,-0.24 -0.78,-0.34c-0.26,-0.11 -0.51,-0.22 -0.78,-0.3c-0.28,-0.08 -0.57,-0.14 -0.87,-0.19c-0.26,-0.05 -0.51,-0.1 -0.78,-0.13c-0.29,-0.02 -0.58,-0.02 -0.86,-0.02c-0.28,0 -0.55,0 -0.84,0.02c-0.27,0.03 -0.54,0.08 -0.81,0.14c-0.28,0.05 -0.56,0.1 -0.84,0.18c-0.28,0.09 -0.54,0.19 -0.81,0.3c-0.25,0.11 -0.5,0.21 -0.75,0.34c-0.29,0.14 -0.55,0.33 -0.82,0.51c-0.16,0.11 -0.33,0.19 -0.49,0.3l-33.35,25.84c-3.82,2.96 -4.52,8.46 -1.56,12.28c1.73,2.22 4.31,3.39 6.93,3.39c1.87,0 3.76,-0.6 5.35,-1.84l28,-21.68l116.4,90.17c1.59,1.24 3.48,1.83 5.35,1.83z" fill="#000000" id="svg_12" />
   <path d="m181.09,156.36l0,-30.84c0,-4.83 -3.92,-8.75 -8.75,-8.75c-4.83,0 -8.75,3.92 -8.75,8.75l0,26.55l-50.08,38.79c-3.82,2.96 -4.52,8.46 -1.56,12.28c1.72,2.23 4.31,3.39 6.93,3.39c1.87,0 3.75,-0.6 5.35,-1.83l53.47,-41.42c2.14,-1.66 3.39,-4.21 3.39,-6.92z" fill="#000000" id="svg_13" />
   <path d="m155.68,240.62l0,-20.22c0,-4.83 -3.92,-8.75 -8.75,-8.75s-8.75,3.92 -8.75,8.75l0,20.22c0,4.83 3.92,8.75 8.75,8.75s8.75,-3.92 8.75,-8.75z" fill="#000000" id="svg_14" />
   <path d="m53.49,249.37c4.83,0 8.75,-3.92 8.75,-8.75c0,-98.36 80.03,-178.39 178.39,-178.39c98.36,0 178.39,80.03 178.39,178.39c0,4.83 3.92,8.75 8.75,8.75s8.75,-3.92 8.75,-8.75c0,-108.02 -87.88,-195.89 -195.89,-195.89s-195.89,87.87 -195.89,195.89c0,4.83 3.92,8.75 8.75,8.75z" fill="#000000" id="svg_15" />
   <path d="m81.68,414.36c4.83,0 8.75,-3.92 8.75,-8.75l0,-27.75l51.06,0c2.63,0 5.12,-1.19 6.78,-3.24c1.66,-2.04 2.32,-4.73 1.78,-7.3l-13.12,-62.86c-0.85,-4.06 -4.43,-6.96 -8.57,-6.96l-119.61,-0.01c-2.63,0 -5.13,1.19 -6.79,3.24c-1.66,2.04 -2.31,4.73 -1.78,7.3l13.13,62.86c0.85,4.06 4.42,6.96 8.57,6.96l51.05,0l0,27.76c0,4.83 3.92,8.75 8.75,8.75zm-62.16,-99.37l101.73,0l9.47,45.36l-101.73,0l-9.47,-45.36z" fill="#000000" id="svg_16" />
   <path d="m240.63,414.36c4.83,0 8.75,-3.92 8.75,-8.75l0,-27.75l51.05,0c4.83,0 8.75,-3.93 8.75,-8.75l0,-62.87c0,-4.83 -3.92,-8.75 -8.75,-8.75l-119.61,0c-4.83,0 -8.75,3.92 -8.75,8.75l0,62.86c0,4.83 3.92,8.75 8.75,8.75l51.06,0l0,27.76c0,4.83 3.92,8.75 8.75,8.75zm-51.06,-99.37l102.12,0l0,45.36l-102.12,0l0,-45.36z" fill="#000000" id="svg_17" />
   <path d="m399.58,414.36c4.83,0 8.75,-3.92 8.75,-8.75l0,-27.75l51.05,-0.01c4.15,0 7.72,-2.9 8.57,-6.96l13.13,-62.86c0.54,-2.58 -0.12,-5.26 -1.78,-7.3c-1.66,-2.05 -4.16,-3.24 -6.79,-3.24l-119.61,0c-4.14,0 -7.72,2.91 -8.57,6.96l-13.12,62.86c-0.54,2.58 0.11,5.26 1.78,7.31c1.66,2.04 4.15,3.23 6.79,3.23l51.05,0l0,27.76c0,4.83 3.92,8.75 8.75,8.75zm-39.57,-99.37l101.73,0l-9.47,45.36l-101.73,0l9.47,-45.36z" fill="#000000" id="svg_18" />
   <path d="m481.25,440.61c0,-4.83 -3.92,-8.75 -8.75,-8.75l-463.75,0c-4.83,0 -8.75,3.92 -8.75,8.75s3.92,8.75 8.75,8.75l463.75,0c4.83,0 8.75,-3.92 8.75,-8.75z" fill="#000000" id="svg_19" />
   <path d="m222.29,153.77c-4.83,0 -8.75,3.92 -8.75,8.75l0,16.44c-4.55,0.32 -8.15,4.06 -8.15,8.69l0,26.48c0,16.4 11.28,30.19 26.48,34.09l0,23.02c0,4.83 3.92,8.75 8.75,8.75s8.75,-3.92 8.75,-8.75l0,-23.02c15.2,-3.9 26.49,-17.69 26.49,-34.09l0,-26.48c0,-4.63 -3.61,-8.38 -8.16,-8.69l0,-16.44c0,-4.83 -3.92,-8.75 -8.75,-8.75s-8.75,3.92 -8.75,8.75l0,16.38l-19.17,0l0,-16.38c0.01,-4.83 -3.91,-8.75 -8.74,-8.75zm36.07,60.36c0,9.78 -7.95,17.74 -17.73,17.74s-17.74,-7.96 -17.74,-17.74l0,-17.73l35.48,0l-0.01,17.73z" fill="#000000" id="svg_20" />
  </g>
 </g>
</svg>